<svg width="182" height="31" viewBox="0 0 182 31" fill="none" xmlns="http://www.w3.org/2000/svg">
<path d="M15 0L18.3677 10.7102H29.2658L20.4491 17.3295L23.8168 28.0398L15 21.4205L6.18322 28.0398L9.55093 17.3295L0.734152 10.7102H11.6323L15 0Z" fill="#D13838"/>
<path d="M53 0L56.3677 10.7102H67.2658L58.4491 17.3295L61.8168 28.0398L53 21.4205L44.1832 28.0398L47.5509 17.3295L38.7342 10.7102H49.6323L53 0Z" fill="#D13838"/>
<path d="M91 0L94.3677 10.7102H105.266L96.4491 17.3295L99.8168 28.0398L91 21.4205L82.1832 28.0398L85.5509 17.3295L76.7342 10.7102H87.6323L91 0Z" fill="#D13838"/>
<path d="M129 0L132.368 10.7102H143.266L134.449 17.3295L137.817 28.0398L129 21.4205L120.183 28.0398L123.551 17.3295L114.734 10.7102H125.632L129 0Z" fill="#D13838"/>
<path d="M167 0L170.368 10.7102H181.266L172.449 17.3295L175.817 28.0398L167 21.4205L158.183 28.0398L161.551 17.3295L152.734 10.7102H163.632L167 0Z" fill="#D13838"/>
</svg>
