<svg width="182" height="32" viewBox="0 0 182 32" fill="none" xmlns="http://www.w3.org/2000/svg">
<path d="M15 1L18.3677 11.7102H29.2658L20.4491 18.3295L23.8168 29.0398L15 22.4205L6.18322 29.0398L9.55093 18.3295L0.734152 11.7102H11.6323L15 1Z" fill="#F53F3F"/>
<path d="M53 1L56.3677 11.7102H67.2658L58.4491 18.3295L61.8168 29.0398L53 22.4205L44.1832 29.0398L47.5509 18.3295L38.7342 11.7102H49.6323L53 1Z" fill="#F53F3F"/>
<path d="M91 1L94.3677 11.7102H105.266L96.4491 18.3295L99.8168 29.0398L91 22.4205L82.1832 29.0398L85.5509 18.3295L76.7342 11.7102H87.6323L91 1Z" fill="#F53F3F"/>
<path d="M129 0L132.368 10.7102H143.266L134.449 17.3295L137.817 28.0398L129 21.4205L120.183 28.0398L123.551 17.3295L114.734 10.7102H125.632L129 0Z" fill="#D13838"/>
<path d="M167 1L170.368 11.7102H181.266L172.449 18.3295L175.817 29.0398L167 22.4205L158.183 29.0398L161.551 18.3295L152.734 11.7102H163.632L167 1Z" fill="#C1C1C1"/>
<path fill-rule="evenodd" clip-rule="evenodd" d="M132.368 10.7102L129 0V21.4205L137.764 28H137.804L134.449 17.3295L143.266 10.7102H132.368Z" fill="#C1C1C1"/>
</svg>
