<svg width="48" height="48" viewBox="0 0 48 48" fill="none" xmlns="http://www.w3.org/2000/svg">
<circle cx="24" cy="24" r="24" fill="white"/>
<path d="M24 10C20.2007 10 19.723 10.0175 18.2303 10.084C16.7375 10.154 15.7207 10.3885 14.83 10.735C13.8957 11.0864 13.0494 11.6377 12.3503 12.3503C11.6381 13.0497 11.0869 13.8959 10.735 14.83C10.3885 15.719 10.1523 16.7375 10.084 18.225C10.0175 19.7212 10 20.1973 10 24.0018C10 27.8028 10.0175 28.2788 10.084 29.7715C10.154 31.2625 10.3885 32.2792 10.735 33.17C11.0937 34.0905 11.5715 34.871 12.3503 35.6497C13.1273 36.4285 13.9078 36.908 14.8283 37.265C15.7208 37.6115 16.7358 37.8477 18.2268 37.916C19.7213 37.9825 20.1972 38 24 38C27.8028 38 28.277 37.9825 29.7715 37.916C31.2608 37.846 32.281 37.6115 33.1718 37.265C34.1055 36.9134 34.9512 36.3621 35.6497 35.6497C36.4285 34.871 36.9062 34.0905 37.265 33.17C37.6097 32.2792 37.846 31.2625 37.916 29.7715C37.9825 28.2788 38 27.8028 38 24C38 20.1972 37.9825 19.7213 37.916 18.2268C37.846 16.7375 37.6097 15.719 37.265 14.83C36.9131 13.8959 36.3619 13.0497 35.6497 12.3503C34.9509 11.6374 34.1045 11.0861 33.17 10.735C32.2775 10.3885 31.259 10.1523 29.7697 10.084C28.2752 10.0175 27.801 10 23.9965 10H24.0018H24ZM22.7452 12.5235H24.0018C27.7398 12.5235 28.1825 12.5358 29.6577 12.604C31.0227 12.6653 31.7647 12.8945 32.2582 13.0853C32.911 13.339 33.3782 13.6435 33.8682 14.1335C34.3582 14.6235 34.661 15.089 34.9148 15.7435C35.1073 16.2353 35.3348 16.9773 35.396 18.3423C35.4643 19.8175 35.4783 20.2603 35.4783 23.9965C35.4783 27.7328 35.4643 28.1772 35.396 29.6525C35.3348 31.0175 35.1055 31.7578 34.9148 32.2513C34.6903 32.8591 34.332 33.4088 33.8665 33.8595C33.3765 34.3495 32.911 34.6523 32.2565 34.906C31.7665 35.0985 31.0245 35.326 29.6577 35.389C28.1825 35.4555 27.7398 35.4713 24.0018 35.4713C20.2638 35.4713 19.8193 35.4555 18.344 35.389C16.979 35.326 16.2387 35.0985 15.7452 34.906C15.1371 34.6819 14.587 34.3243 14.1352 33.8595C13.6693 33.4081 13.3105 32.8579 13.0853 32.2495C12.8945 31.7577 12.6653 31.0158 12.604 29.6508C12.5375 28.1755 12.5235 27.7327 12.5235 23.993C12.5235 20.255 12.5375 19.814 12.604 18.3387C12.667 16.9737 12.8945 16.2318 13.087 15.7383C13.3408 15.0855 13.6452 14.6182 14.1352 14.1282C14.6252 13.6382 15.0907 13.3355 15.7452 13.0818C16.2387 12.8893 16.979 12.6618 18.344 12.5988C19.6355 12.5393 20.136 12.5218 22.7452 12.52V12.5235ZM31.4742 14.8475C31.2536 14.8475 31.0352 14.891 30.8313 14.9754C30.6275 15.0598 30.4423 15.1836 30.2863 15.3396C30.1303 15.4956 30.0066 15.6808 29.9221 15.8846C29.8377 16.0884 29.7942 16.3069 29.7942 16.5275C29.7942 16.7481 29.8377 16.9666 29.9221 17.1704C30.0066 17.3742 30.1303 17.5594 30.2863 17.7154C30.4423 17.8714 30.6275 17.9952 30.8313 18.0796C31.0352 18.164 31.2536 18.2075 31.4742 18.2075C31.9198 18.2075 32.3471 18.0305 32.6622 17.7154C32.9773 17.4004 33.1542 16.9731 33.1542 16.5275C33.1542 16.0819 32.9773 15.6546 32.6622 15.3396C32.3471 15.0245 31.9198 14.8475 31.4742 14.8475ZM24.0018 16.811C23.0481 16.7961 22.1011 16.9711 21.2157 17.3257C20.3304 17.6804 19.5244 18.2076 18.8448 18.8767C18.1651 19.5459 17.6254 20.3435 17.257 21.2232C16.8886 22.1029 16.6988 23.0471 16.6988 24.0009C16.6988 24.9546 16.8886 25.8988 17.257 26.7785C17.6254 27.6583 18.1651 28.4559 18.8448 29.125C19.5244 29.7941 20.3304 30.3214 21.2157 30.676C22.1011 31.0306 23.0481 31.2056 24.0018 31.1908C25.8892 31.1613 27.6894 30.3908 29.0137 29.0457C30.338 27.7005 31.0803 25.8886 31.0803 24.0009C31.0803 22.1132 30.338 20.3012 29.0137 18.9561C27.6894 17.6109 25.8892 16.8404 24.0018 16.811ZM24.0018 19.3328C25.2396 19.3328 26.4267 19.8245 27.302 20.6998C28.1773 21.575 28.669 22.7622 28.669 24C28.669 25.2378 28.1773 26.425 27.302 27.3002C26.4267 28.1755 25.2396 28.6672 24.0018 28.6672C22.7639 28.6672 21.5768 28.1755 20.7015 27.3002C19.8262 26.425 19.3345 25.2378 19.3345 24C19.3345 22.7622 19.8262 21.575 20.7015 20.6998C21.5768 19.8245 22.7639 19.3328 24.0018 19.3328Z" fill="black"/>
</svg>
