<svg width="48" height="48" viewBox="0 0 48 48" fill="none" xmlns="http://www.w3.org/2000/svg">
<circle cx="24" cy="24" r="24" fill="white"/>
<path d="M33.7632 13.216C32.4277 11.8741 30.8373 10.8103 29.0846 10.0865C27.3319 9.36271 25.4521 8.99339 23.5546 9.00009C15.6037 9.00009 9.12381 15.4489 9.11652 23.3659C9.11652 25.9016 9.7829 28.3684 11.041 30.5525L9 38L16.6542 36.0026C18.7717 37.1498 21.1439 37.7511 23.5546 37.7517H23.5619C31.5147 37.7517 37.9927 31.3028 38 23.3786C38.0018 21.4901 37.6282 19.6198 36.9008 17.8757C36.1733 16.1315 35.1082 14.5478 33.7632 13.216ZM23.5546 35.3193C21.4044 35.32 19.2937 34.744 17.4444 33.6518L17.0074 33.3908L12.4666 34.5762L13.6792 30.1664L13.3952 29.7115C12.1931 27.8089 11.5574 25.6062 11.5617 23.3587C11.5617 16.7866 16.9455 11.4252 23.5619 11.4252C25.1381 11.4224 26.6994 11.7302 28.1555 12.3309C29.6117 12.9316 30.9341 13.8133 32.0463 14.9251C33.1625 16.0327 34.0473 17.3492 34.6498 18.7989C35.2523 20.2485 35.5605 21.8025 35.5566 23.3714C35.5493 29.967 30.1656 35.3193 23.5546 35.3193ZM30.1364 26.3765C29.7777 26.197 28.0062 25.3289 27.673 25.2056C27.3417 25.0878 27.0995 25.0262 26.8628 25.385C26.6207 25.7421 25.9288 26.5559 25.7212 26.7897C25.5137 27.0308 25.2988 27.058 24.9383 26.8803C24.5797 26.6991 23.4162 26.3221 22.0398 25.095C20.9656 24.1435 20.2464 22.9654 20.0316 22.6083C19.824 22.2494 20.0115 22.0573 20.1918 21.8779C20.3502 21.7184 20.5505 21.4574 20.7307 21.2507C20.9128 21.0441 20.9729 20.8919 21.0912 20.6526C21.2096 20.4097 21.1531 20.2031 21.0639 20.0237C20.9729 19.8442 20.2537 18.0734 19.9496 17.3593C19.6583 16.6543 19.3616 16.7521 19.1394 16.7431C18.9319 16.7304 18.6897 16.7304 18.4476 16.7304C18.2647 16.7349 18.0848 16.777 17.919 16.854C17.7533 16.9311 17.6053 17.0414 17.4844 17.1781C17.1531 17.5369 16.2263 18.4051 16.2263 20.1759C16.2263 21.9467 17.519 23.6487 17.7011 23.8897C17.8795 24.1308 20.2391 27.754 23.8605 29.3127C24.7162 29.6843 25.3899 29.9036 25.9161 30.0703C26.7809 30.3458 27.562 30.3041 28.1846 30.2153C28.8765 30.1102 30.3167 29.3453 30.6207 28.5062C30.9193 27.6652 30.9193 26.9474 30.8283 26.797C30.7391 26.6447 30.4969 26.5559 30.1364 26.3765Z" fill="black"/>
</svg>
